<svg xmlns="http://www.w3.org/2000/svg" width="400" height="400" viewBox="0 0 400 400"><rect width="100%" height="100%" fill="#1f1f29"/><path fill="#ccccdc" d="M145.135 245.215h22.1v15.73h-68v-15.73h24.9v-71.65q0-4.25.26-8.76l-17.68 14.8q-1.53 1.18-3.02 1.48t-2.81.04q-1.31-.25-2.33-.89-1.02-.63-1.53-1.4l-6.63-9.1 37.48-31.87h17.26zm41.73 4.17q0-2.64.98-5.02t2.68-4.08 4.08-2.72 5.1-1.02 5.06 1.02q2.33 1.02 4.07 2.72 1.75 1.7 2.77 4.08t1.02 5.02q0 2.72-1.02 5.06-1.02 2.33-2.77 4.03-1.74 1.7-4.07 2.68-2.34.98-5.06.98t-5.1-.98-4.08-2.68-2.68-4.03q-.98-2.34-.98-5.06m0-60.61q0-2.63.98-5.01t2.68-4.08 4.08-2.72 5.1-1.02 5.06 1.02q2.33 1.02 4.07 2.72 1.75 1.7 2.77 4.08t1.02 5.01q0 2.72-1.02 5.06t-2.77 4.04q-1.74 1.7-4.07 2.68-2.34.97-5.06.97t-5.1-.97q-2.38-.98-4.08-2.68t-2.68-4.04-.98-5.06m100.64 56.44h22.1v15.73h-68v-15.73h24.91v-71.65q0-4.25.25-8.76l-17.68 14.8q-1.53 1.18-3.01 1.48-1.49.3-2.81.04-1.32-.25-2.34-.89-1.02-.63-1.53-1.4l-6.63-9.1 37.49-31.87h17.25z"/></svg>